<svg width="26" height="27" viewBox="0 0 26 27" fill="none" xmlns="http://www.w3.org/2000/svg">
<path d="M25.2047 0.931431C25.1293 0.743597 24.9844 0.59207 24.8001 0.508375C24.6158 0.424679 24.4063 0.415259 24.2152 0.482073C24.0242 0.548887 23.8662 0.686792 23.7742 0.867098C23.6823 1.0474 23.6633 1.25623 23.7214 1.45013C24.9291 4.92113 22.5319 7.51333 20.7041 8.90173L19.9657 7.84353C19.7174 7.48863 19.1623 7.19353 18.7307 7.18833L14.5863 7.20653C14.08 7.22182 13.5873 7.37364 13.1602 7.64593L0.948006 16.209C0.663949 16.4089 0.470671 16.7132 0.410489 17.0553C0.350307 17.3974 0.428126 17.7494 0.626906 18.0342L6.17661 25.9746C6.59261 26.5661 7.25691 26.4946 7.84971 26.0812L20.0619 17.5168C20.4129 17.2685 20.8185 16.7329 20.9615 16.3234L22.2589 12.2349C22.4019 11.8267 22.3148 11.204 22.0665 10.8491L21.6167 10.2043C24.0711 8.32323 26.6191 4.99913 25.2047 0.931431ZM19.5224 13.0968C19.2974 13.2543 19.0436 13.3659 18.7755 13.4253C18.5074 13.4846 18.2302 13.4906 17.9597 13.4428C17.6893 13.395 17.431 13.2943 17.1994 13.1467C16.9679 12.999 16.7678 12.8071 16.6104 12.582C16.2918 12.1266 16.1669 11.5633 16.2632 11.0159C16.3595 10.4685 16.669 9.98165 17.1239 9.66223C17.4805 9.41239 17.9063 9.28022 18.3416 9.28418C18.777 9.28814 19.2003 9.42804 19.5523 9.68433C19.1987 9.89753 18.9556 10.0223 18.9101 10.0418C18.749 10.1187 18.6187 10.248 18.5406 10.4085C18.4626 10.5691 18.4414 10.7514 18.4805 10.9256C18.5196 11.0998 18.6168 11.2555 18.756 11.3673C18.8952 11.479 19.0683 11.5402 19.2468 11.5407C19.3586 11.5407 19.473 11.5147 19.5809 11.464C19.8331 11.3444 20.1035 11.2027 20.3856 11.035C20.4505 11.4251 20.4039 11.8256 20.2512 12.1904C20.0985 12.5551 19.8459 12.8693 19.5224 13.0968Z" fill="white"/>
</svg>
