<svg width="26" height="29" viewBox="0 0 26 29" fill="none" xmlns="http://www.w3.org/2000/svg">
<path d="M15.82 25.585L13 28.405L10.18 25.585C4.6375 24.305 0.5 19.335 0.5 13.405C0.5 6.50497 6.1 0.904968 13 0.904968C19.9 0.904968 25.5 6.50497 25.5 13.405C25.5 19.335 21.3625 24.305 15.82 25.585ZM5.52875 17.675C7.36375 20.4125 10.1187 22.155 13.2 22.155C16.28 22.155 19.0362 20.4137 20.87 17.675C18.7897 15.7307 16.0474 14.651 13.2 14.655C10.3521 14.6507 7.60939 15.7304 5.52875 17.675ZM13 12.155C13.9946 12.155 14.9484 11.7599 15.6517 11.0566C16.3549 10.3534 16.75 9.39953 16.75 8.40497C16.75 7.41041 16.3549 6.45658 15.6517 5.75332C14.9484 5.05006 13.9946 4.65497 13 4.65497C12.0054 4.65497 11.0516 5.05006 10.3483 5.75332C9.64509 6.45658 9.25 7.41041 9.25 8.40497C9.25 9.39953 9.64509 10.3534 10.3483 11.0566C11.0516 11.7599 12.0054 12.155 13 12.155Z" fill="white"/>
</svg>
