<svg width="26" height="26" viewBox="0 0 26 26" fill="none" xmlns="http://www.w3.org/2000/svg">
<path d="M12.9121 0.329102C6.10683 0.329102 0.570312 5.86562 0.570312 12.6709V17.7841C0.570312 19.0479 1.67737 20.0759 3.03867 20.0759H4.27284C4.60017 20.0759 4.91409 19.9459 5.14554 19.7145C5.37699 19.483 5.50702 19.1691 5.50702 18.8418V12.4944C5.50702 12.1671 5.37699 11.8531 5.14554 11.6217C4.91409 11.3902 4.60017 11.2602 4.27284 11.2602H3.15221C3.83841 6.48394 7.94823 2.79746 12.9121 2.79746C17.8759 2.79746 21.9858 6.48394 22.672 11.2602H21.5513C21.224 11.2602 20.9101 11.3902 20.6786 11.6217C20.4472 11.8531 20.3172 12.1671 20.3172 12.4944V20.0759C20.3172 21.4372 19.2101 22.5443 17.8488 22.5443H15.3804V21.3101H10.4437V25.0126H17.8488C20.5714 25.0126 22.7855 22.7985 22.7855 20.0759C24.1468 20.0759 25.2539 19.0479 25.2539 17.7841V12.6709C25.2539 5.86562 19.7173 0.329102 12.9121 0.329102Z" fill="white"/>
</svg>
